<svg xmlns="http://www.w3.org/2000/svg" version="1.1" xmlns:xlink="http://www.w3.org/1999/xlink" width="80" height="80" x="0" y="0" viewBox="0 0 512 512" style="enable-background:new 0 0 512 512" xml:space="preserve" class=""><g><path d="M328.555 182.939v-36.054c0-5.535-4.933-9.767-10.403-8.926l-10.689 1.644c-4.388.675-8.586-1.95-9.965-6.169a117.108 117.108 0 0 0-6.982-16.808c-2-3.926-.831-8.723 2.722-11.328l8.732-6.404c4.463-3.273 4.958-9.754 1.045-13.668l-32.837-32.837c-3.913-3.913-10.395-3.418-13.668 1.045l-6.404 8.732c-2.606 3.553-7.403 4.722-11.328 2.722a117.218 117.218 0 0 0-16.808-6.981c-4.22-1.379-6.844-5.578-6.169-9.965l1.644-10.689c.841-5.47-3.391-10.403-8.926-10.403h-46.438c-5.535 0-9.767 4.933-8.926 10.403l1.644 10.689c.675 4.388-1.95 8.586-6.169 9.965a117.218 117.218 0 0 0-16.808 6.981c-3.926 2-8.723.831-11.328-2.722l-6.404-8.732c-3.273-4.463-9.754-4.958-13.668-1.045l-32.84 32.836c-3.914 3.914-3.418 10.395 1.045 13.668l8.732 6.404c3.553 2.606 4.722 7.402 2.722 11.328a117.385 117.385 0 0 0-6.982 16.808c-1.379 4.22-5.578 6.844-9.965 6.169l-10.688-1.644c-5.47-.841-10.403 3.391-10.403 8.926v46.438c0 5.535 4.933 9.767 10.403 8.926l10.688-1.644c4.388-.675 8.586 1.95 9.965 6.169 1.9 5.815 4.241 11.43 6.982 16.808 2 3.926.831 8.723-2.722 11.328l-8.732 6.404c-4.463 3.273-4.958 9.754-1.045 13.668l32.837 32.837c3.913 3.914 10.395 3.418 13.668-1.045l6.404-8.732c2.606-3.553 7.403-4.722 11.328-2.722a117.337 117.337 0 0 0 16.808 6.982c4.22 1.379 6.844 5.578 6.169 9.965l-1.644 10.688c-.841 5.47 3.391 10.403 8.926 10.403h46.438M185.298 99.234c39.141 0 70.87 31.73 70.87 70.87 0 4.494-.418 8.89-1.218 13.152m-42.536 52.346c-8.353 3.462-17.511 5.373-27.116 5.373-39.141 0-70.87-31.73-70.87-70.87 0-25.442 13.406-47.752 33.539-60.253M329.183 485.152H57.433c-27.577 0-49.933-22.356-49.933-49.933v0c0-27.577 22.356-49.933 49.933-49.933h397.134c27.577 0 49.933 22.356 49.933 49.933v0c0 27.577-22.356 49.933-49.933 49.933h-89.384" style="stroke-width:15;stroke-linecap:round;stroke-linejoin:round;stroke-miterlimit:10;" fill="none" stroke="currentColor" stroke-width="15" stroke-linecap="round" stroke-linejoin="round" stroke-miterlimit="10" data-original="currentColor" class=""></path><circle cx="75.95" cy="435.219" r="19.005" style="stroke-width:15;stroke-linecap:round;stroke-linejoin:round;stroke-miterlimit:10;" fill="none" stroke="currentColor" stroke-width="15" stroke-linecap="round" stroke-linejoin="round" stroke-miterlimit="10" data-original="currentColor" class=""></circle><circle cx="147.97" cy="435.219" r="19.005" style="stroke-width:15;stroke-linecap:round;stroke-linejoin:round;stroke-miterlimit:10;" fill="none" stroke="currentColor" stroke-width="15" stroke-linecap="round" stroke-linejoin="round" stroke-miterlimit="10" data-original="currentColor" class=""></circle><circle cx="219.99" cy="435.219" r="19.005" style="stroke-width:15;stroke-linecap:round;stroke-linejoin:round;stroke-miterlimit:10;" fill="none" stroke="currentColor" stroke-width="15" stroke-linecap="round" stroke-linejoin="round" stroke-miterlimit="10" data-original="currentColor" class=""></circle><circle cx="292.01" cy="435.219" r="19.005" style="stroke-width:15;stroke-linecap:round;stroke-linejoin:round;stroke-miterlimit:10;" fill="none" stroke="currentColor" stroke-width="15" stroke-linecap="round" stroke-linejoin="round" stroke-miterlimit="10" data-original="currentColor" class=""></circle><circle cx="364.03" cy="435.219" r="19.005" style="stroke-width:15;stroke-linecap:round;stroke-linejoin:round;stroke-miterlimit:10;" fill="none" stroke="currentColor" stroke-width="15" stroke-linecap="round" stroke-linejoin="round" stroke-miterlimit="10" data-original="currentColor" class=""></circle><circle cx="436.05" cy="435.219" r="19.005" style="stroke-width:15;stroke-linecap:round;stroke-linejoin:round;stroke-miterlimit:10;" fill="none" stroke="currentColor" stroke-width="15" stroke-linecap="round" stroke-linejoin="round" stroke-miterlimit="10" data-original="currentColor" class=""></circle><path d="M465.293 385.286H213.951v-189.46a9.072 9.072 0 0 1 9.072-9.072h233.198a9.072 9.072 0 0 1 9.072 9.072v189.46z" style="stroke-width:15;stroke-linecap:round;stroke-linejoin:round;stroke-miterlimit:10;" fill="none" stroke="currentColor" stroke-width="15" stroke-linecap="round" stroke-linejoin="round" stroke-miterlimit="10" data-original="currentColor" class=""></path><path d="M365.183 188.754v65.162a5.601 5.601 0 0 1-5.601 5.601h-39.919a5.601 5.601 0 0 1-5.601-5.601v-65.162M311.705 312.765h43.056M413.204 218.502h52.089M419.054 261.032h44.611M313.602 348.931h38.949M49.605 350.119h79.36M49.605 316.88h31.467" style="stroke-width:15;stroke-linecap:round;stroke-linejoin:round;stroke-miterlimit:10;" fill="none" stroke="currentColor" stroke-width="15" stroke-linecap="round" stroke-linejoin="round" stroke-miterlimit="10" data-original="currentColor" class=""></path></g></svg>