<svg xmlns="http://www.w3.org/2000/svg" version="1.1" xmlns:xlink="http://www.w3.org/1999/xlink" width="80" height="80" x="0" y="0" viewBox="0 0 512 512" style="enable-background:new 0 0 512 512" xml:space="preserve" class=""><g><path d="M480.095 352.43c14.487-14.488 19.331-34.772 12.957-54.261a7.999 7.999 0 0 0-13.261-3.17l-28.916 28.917-13.878-3.72-3.72-13.879 28.917-28.916a8 8 0 0 0-3.17-13.261c-19.487-6.374-39.773-1.531-54.263 12.958-7.969 7.969-13.017 18.279-14.795 29.136a202.166 202.166 0 0 0-92.372-49.658c29.739-14.41 51.907-42.305 58.154-76.259h1.497c12.245 0 22.207-9.961 22.207-22.206 0-10.366-7.139-19.095-16.759-21.53a95.7 95.7 0 0 0 .003-.757c0-46.634-28.649-87.805-71.847-104.178a22.031 22.031 0 0 0-4.737-10.393C278.29 11.714 263.13 8.792 251.789 8.02a8.23 8.23 0 0 0-1.088 0c-11.341.772-26.501 3.695-34.323 13.233a22.026 22.026 0 0 0-4.737 10.393c-43.197 16.373-71.847 57.545-71.847 104.178l.003.757c-9.62 2.435-16.759 11.164-16.759 21.53 0 12.244 9.962 22.206 22.207 22.206h1.497c6.243 33.933 28.388 61.815 58.099 76.232a201.018 201.018 0 0 0-57.163 23.135l-.703-1.827a8 8 0 0 0-7.466-5.126h-27.482a8 8 0 0 0-7.466 5.126l-5.005 13.003a94.358 94.358 0 0 0-19.879 8.242l-12.742-5.66a8.004 8.004 0 0 0-8.904 1.654L38.597 314.53a8 8 0 0 0-1.654 8.904l5.659 12.741a94.347 94.347 0 0 0-8.243 19.881l-13.001 5.004a8 8 0 0 0-5.126 7.466v27.482a8 8 0 0 0 5.126 7.466l12.999 5.004a94.405 94.405 0 0 0 8.243 19.886l-5.657 12.737a8 8 0 0 0 1.655 8.904l19.434 19.433a8.001 8.001 0 0 0 8.903 1.654l12.742-5.66a94.358 94.358 0 0 0 19.879 8.242l5.005 13.003a8 8 0 0 0 7.466 5.126h27.482a8 8 0 0 0 7.466-5.126l5.004-12.999a94.375 94.375 0 0 0 19.885-8.243l12.738 5.657a7.997 7.997 0 0 0 8.904-1.655l19.433-19.434a7.999 7.999 0 0 0 1.654-8.903l-.196-.441h39.722c-1.672 8.703-1.166 17.853 1.718 26.669a7.999 7.999 0 0 0 13.261 3.17l28.916-28.916 13.879 3.719 3.72 13.88-28.916 28.915a8 8 0 0 0 3.169 13.261 53.64 53.64 0 0 0 16.69 2.674c13.877 0 27.385-5.445 37.57-15.631 12.689-12.69 17.971-30.591 14.652-47.74h85.732a8 8 0 0 0 7.954-8.851c-2.408-22.501-8.488-44.115-18.079-64.425 16.464 2.417 33.729-2.976 45.71-14.954zM212.75 48.475l5.853 45.072a7.996 7.996 0 0 0 8.964 6.903 8 8 0 0 0 6.903-8.964l-7.071-54.457c-.396-3.046.515-4.609 1.352-5.63 3.129-3.815 11.516-6.56 22.495-7.377 10.979.817 19.366 3.562 22.495 7.377.837 1.021 1.747 2.583 1.352 5.63l-7.071 54.457a8.001 8.001 0 0 0 15.867 2.06l5.853-45.071c34.426 15.111 56.956 49.08 56.956 87.35l-.001.081h-33.809V85.161a8 8 0 0 0-16 0v50.745h-91.282V85.161a8 8 0 0 0-16 0v50.745h-33.808l-.001-.081c-.003-38.269 22.526-72.239 56.953-87.35zm-73.712 109.637a6.213 6.213 0 0 1 6.207-6.206h211.999c3.423 0 6.207 2.784 6.207 6.206s-2.784 6.206-6.207 6.206H145.245a6.213 6.213 0 0 1-6.207-6.206zm24.03 22.206h176.354c-8.937 40.977-45.367 70.872-88.177 70.872s-79.24-29.895-88.177-70.872zm23.008 273.922-11.465-5.092a8.002 8.002 0 0 0-7.442.5 78.55 78.55 0 0 1-23.036 9.551 7.996 7.996 0 0 0-5.614 4.908l-4.503 11.696H117.52l-4.504-11.7a7.999 7.999 0 0 0-5.613-4.908 78.524 78.524 0 0 1-23.031-9.549 8.002 8.002 0 0 0-7.442-.5l-11.47 5.094-11.665-11.664 5.092-11.464a8.001 8.001 0 0 0-.5-7.442 78.568 78.568 0 0 1-9.551-23.037 7.996 7.996 0 0 0-4.908-5.614l-11.696-4.503V374.02l11.698-4.503a7.999 7.999 0 0 0 4.908-5.613 78.533 78.533 0 0 1 9.55-23.033 8.001 8.001 0 0 0 .5-7.442l-5.093-11.468 11.665-11.665 11.469 5.094a7.999 7.999 0 0 0 7.442-.5 78.573 78.573 0 0 1 23.031-9.549 7.999 7.999 0 0 0 5.613-4.908l4.504-11.7h16.496l4.504 11.7a7.999 7.999 0 0 0 5.613 4.908 78.524 78.524 0 0 1 23.031 9.549 8.005 8.005 0 0 0 7.442.5l11.469-5.094 11.665 11.664-5.092 11.464a8.002 8.002 0 0 0 .499 7.441 78.572 78.572 0 0 1 9.552 23.039 7.996 7.996 0 0 0 4.908 5.614l11.696 4.502v16.496l-11.7 4.504a7.999 7.999 0 0 0-4.908 5.613 78.524 78.524 0 0 1-9.549 23.031 8.001 8.001 0 0 0-.5 7.442l5.094 11.469zm82.718-41.173a53.672 53.672 0 0 0-8.808 11.592h-49.115a94.246 94.246 0 0 0 6.303-16.18l13.003-5.005a8 8 0 0 0 5.126-7.466v-27.482a8 8 0 0 0-5.126-7.466l-12.999-5.003a94.377 94.377 0 0 0-8.244-19.887l5.658-12.737a8 8 0 0 0-1.655-8.904l-19.434-19.433a8.002 8.002 0 0 0-8.903-1.654l-12.742 5.66a94.494 94.494 0 0 0-14.536-6.537c28.436-16.631 60.683-25.376 93.922-25.376 53.516 0 104.242 22.935 139.663 63.005l-69.422 69.422a53.171 53.171 0 0 0-52.691 13.451zm72.17 23.558a37.206 37.206 0 0 1-8.153 40.461c-6.392 6.392-14.649 10.115-23.292 10.814l20.673-20.672a8 8 0 0 0 2.07-7.728l-6.11-22.803a8 8 0 0 0-5.657-5.657l-22.802-6.109a8 8 0 0 0-7.727 2.071l-20.672 20.673c.7-8.643 4.424-16.902 10.814-23.294a37.21 37.21 0 0 1 40.462-8.152 8.003 8.003 0 0 0 8.681-1.749l76.925-76.925a8 8 0 0 0 1.749-8.681c-5.603-13.723-2.326-29.983 8.151-40.461 6.522-6.521 14.721-10.25 23.372-10.893l-20.75 20.749a8 8 0 0 0-2.07 7.728l6.11 22.802a8 8 0 0 0 5.656 5.657l22.801 6.11a8.002 8.002 0 0 0 7.729-2.07l20.749-20.75c-.643 8.65-4.371 16.85-10.892 23.369-10.479 10.479-26.738 13.758-40.46 8.153a8.006 8.006 0 0 0-8.682 1.749l-76.926 76.926a8.002 8.002 0 0 0-1.749 8.682zm27.661-11.966 51.024-51.024a184 184 0 0 1 15.747 51.024zm-242.857-98.32c-30.839 0-55.929 25.09-55.929 55.929 0 30.84 25.09 55.93 55.929 55.93s55.929-25.09 55.929-55.93c-.001-30.839-25.091-55.929-55.929-55.929zm0 95.858c-22.017 0-39.929-17.912-39.929-39.93 0-22.017 17.912-39.929 39.929-39.929s39.929 17.912 39.929 39.929c-.001 22.018-17.913 39.93-39.929 39.93z" fill="currentColor" opacity="1" data-original="currentColor"></path></g></svg>