<svg xmlns="http://www.w3.org/2000/svg" version="1.1" xmlns:xlink="http://www.w3.org/1999/xlink" width="80" height="80" x="0" y="0" viewBox="0 0 480 480" style="enable-background:new 0 0 512 512" xml:space="preserve" class=""><g><path d="M104 200c-22.09 0-40 17.91-40 40s17.91 40 40 40 40-17.91 40-40c-.027-22.082-17.918-39.973-40-40zm0 64c-13.254 0-24-10.746-24-24s10.746-24 24-24 24 10.746 24 24-10.746 24-24 24zM264 112c22.09 0 40-17.91 40-40s-17.91-40-40-40-40 17.91-40 40c.027 22.082 17.918 39.973 40 40zm0-64c13.254 0 24 10.746 24 24s-10.746 24-24 24-24-10.746-24-24 10.746-24 24-24zm0 0" fill="currentColor" opacity="1" data-original="#000000" class=""></path><path d="M456 243.39V216c-.063-20.102-15.063-37.02-35.008-39.496l-85.426-96.75c.282-2.578.426-5.164.434-7.754 0-39.766-32.234-72-72-72s-72 32.234-72 72c0 1.273.129 2.512.191 3.762l-92.457 92.453c-29 1.652-54.148 20.613-63.722 48.039-9.574 27.426-1.684 57.918 19.988 77.258V416H8a8 8 0 0 0-8 8v48a8 8 0 0 0 8 8h304a8 8 0 0 0 8-8v-48a8 8 0 0 0-8-8H152V293.512a70.741 70.741 0 0 0 23.023-64.801l84.899-84.918c1.36.078 2.703.207 4.078.207a71.844 71.844 0 0 0 12.137-1.105L376 221.602v21.804A40.007 40.007 0 0 0 352 280v80a7.998 7.998 0 0 0 11.574 7.2l32-16A7.997 7.997 0 0 0 400 344v-56h32v56a7.997 7.997 0 0 0 4.426 7.2l32 16A8 8 0 0 0 480 360v-80a40.002 40.002 0 0 0-24-36.61zM264 16c30.93 0 56 25.07 56 56s-25.07 56-56 56-56-25.07-56-56c.035-30.914 25.086-55.965 56-56zm40 448H16v-32h288zm-168-48H72V304.398a71.196 71.196 0 0 0 64 0zm-32-120c-30.93 0-56-25.07-56-56s25.07-56 56-56 56 25.07 56 56c-.035 30.914-25.086 55.965-56 56zm65.93-84.8a72.248 72.248 0 0 0-49.356-41.16l75.203-75.2a72.23 72.23 0 0 0 45.176 45.328zM330.855 98.585l70.801 80.191a39.994 39.994 0 0 0-23.32 24.27l-83.727-65.977a72.33 72.33 0 0 0 36.246-38.484zM392 216c0-13.254 10.746-24 24-24s24 10.746 24 24v24h-48zm72 131.055-16-8V280a8 8 0 0 0-8-8h-48a8 8 0 0 0-8 8v59.055l-16 8V280c0-13.254 10.746-24 24-24h48c13.254 0 24 10.746 24 24zm0 0" fill="currentColor" opacity="1" data-original="#000000" class=""></path><path d="M96 336a8 8 0 0 0-8 8v48a8 8 0 0 0 16 0v-48a8 8 0 0 0-8-8zM186.344 130.344l-32 32a8 8 0 1 0 11.312 11.312l32-32a8 8 0 0 0-11.312-11.312zm0 0" fill="currentColor" opacity="1" data-original="#000000" class=""></path></g></svg>