<svg xmlns="http://www.w3.org/2000/svg" version="1.1" xmlns:xlink="http://www.w3.org/1999/xlink" width="80" height="80" x="0" y="0" viewBox="0 0 64 64" style="enable-background:new 0 0 512 512" xml:space="preserve" class=""><g><path d="M19 28.5v-6a1.5 1.5 0 0 0-1.5-1.5h-6.17a1.5 1.5 0 0 0-1.379.909l-2.571 6A1.5 1.5 0 0 0 8.758 30H17.5a1.5 1.5 0 0 0 1.5-1.5Zm-2-.5H9.517l2.142-5H17ZM17 32h2v3h-2zM43 20.578l-.711.719C41.74 21.852 39 24.727 39 26.8a4 4 0 1 0 8 0c0-2.073-2.74-4.948-3.289-5.5ZM43 29a2.109 2.109 0 0 1-2-2.2c0-.736 1.028-2.2 2-3.323.972 1.124 2 2.587 2 3.323a2.109 2.109 0 0 1-2 2.2Z" fill="currentColor" opacity="1" data-original="currentColor" class=""></path><path d="M54.166 16.034A.922.922 0 0 0 54 16h-4.465l-1.555-2.332A1.5 1.5 0 0 0 46.732 13h-6.464a1.5 1.5 0 0 0-1.248.668L37.465 16H32a.922.922 0 0 0-.166.034A8.469 8.469 0 0 0 24 24.47v2.06a8.469 8.469 0 0 0 7.834 8.436A.922.922 0 0 0 32 35h4v2H23V20a2 2 0 0 0-2-2H8.644a2 2 0 0 0-1.821 1.173L2.181 29.386a1.977 1.977 0 0 0-.181.831V43a2 2 0 0 0 2 2h4.08a6.975 6.975 0 0 0 2.031 4H2v2h60v-2h-8.111a6.975 6.975 0 0 0 2.031-4H60a2 2 0 0 0 2-2v-4a2 2 0 0 0-2-2H50v-2h4a.922.922 0 0 0 .166-.034A8.47 8.47 0 0 0 62 26.53v-2.06a8.47 8.47 0 0 0-7.834-8.436ZM40.535 15h5.93l.667 1h-7.264ZM26 26.53v-2.06a6.476 6.476 0 0 1 5-6.3v14.658a6.476 6.476 0 0 1-5-6.298ZM36 39h8.111a6.975 6.975 0 0 0-2.031 4H21.92a6.975 6.975 0 0 0-2.031-4H36ZM4 34.024 7.008 34l-.016-2L4 32.024v-1.808L8.644 20H21v17H4ZM4 39h6.111a6.975 6.975 0 0 0-2.031 4H4Zm6 5a5 5 0 1 1 5 5 5.006 5.006 0 0 1-5-5Zm9.889 5a6.975 6.975 0 0 0 2.031-4h20.16a6.975 6.975 0 0 0 2.031 4ZM49 49a5 5 0 1 1 5-5 5.006 5.006 0 0 1-5 5Zm11-6h-4.08a6.975 6.975 0 0 0-2.031-4H60Zm-12-6H38v-2h10Zm-12-4h-3V18h20v15H36Zm24-6.47a6.476 6.476 0 0 1-5 6.3V18.172a6.476 6.476 0 0 1 5 6.3Z" fill="currentColor" opacity="1" data-original="currentColor" class=""></path><path d="M15 41a3 3 0 1 0 3 3 3 3 0 0 0-3-3Zm0 4a1 1 0 1 1 1-1 1 1 0 0 1-1 1ZM49 41a3 3 0 1 0 3 3 3 3 0 0 0-3-3Zm0 4a1 1 0 1 1 1-1 1 1 0 0 1-1 1Z" fill="currentColor" opacity="1" data-original="currentColor" class=""></path></g></svg>